<svg width="1020" height="240" viewBox="0 0 1020 240" fill="none" xmlns="http://www.w3.org/2000/svg">
<rect width="1020" height="240" fill="white"/>
<g clip-path="url(#clip0_1_47)">
<path d="M308.5 3H463.5C487 3 506 22 506 45.5V194.5C506 218 487 237 463.5 237H308.5C285 237 266 218 266 194.5V45.5C266 22 285 3 308.5 3Z" fill="#49021F"/>
<path d="M353.2 64.2V167.2C353.2 168.3 352.7 168.8 351.8 168.8H332.2C331.3 168.8 330.9 168.3 330.9 167.2V64.2C330.9 63.3 331.4 62.9 332.3 62.9H351.8C352.4 62.8 353 63.2 353.1 63.9C353.2 64 353.2 64.1 353.2 64.2Z" fill="#FF3366"/>
<path d="M411 170C403.6 170.1 396.2 168.6 389.5 165.5C383.2 162.6 378 157.8 374.4 151.9C370.7 145.8 368.9 138.2 368.9 129.1C368.8 121.7 370.7 114.4 374.4 108C378.2 101.5 383.7 96.1 390.3 92.5C397.3 88.6 405.7 86.7 415.6 86.7C416.1 86.7 416.8 86.7 417.7 86.8C418.6 86.9 419.6 86.9 420.8 87V55.4C420.8 54.7 421.1 54.3 421.8 54.3H442.1C442.6 54.2 443 54.6 443.1 55V55.2V150.4C443.1 152.2 443.2 154.2 443.3 156.4C443.5 158.5 443.6 160.5 443.7 162.2C443.7 162.9 443.4 163.5 442.7 163.8C437.5 166 432 167.6 426.4 168.6C421.4 169.5 416.2 170 411 170ZM420.8 150V106C419.9 105.8 419 105.6 418.1 105.5C417 105.4 415.9 105.3 414.8 105.3C410.9 105.3 407 106.1 403.5 107.9C400.1 109.6 397.2 112.1 395 115.3C392.8 118.5 391.7 122.8 391.7 128C391.6 131.5 392.2 135 393.4 138.3C394.4 141 395.9 143.4 397.9 145.4C399.8 147.2 402.1 148.6 404.7 149.4C407.4 150.3 410.2 150.7 413 150.7C414.5 150.7 415.9 150.6 417.2 150.5C418.5 150.6 419.7 150.4 420.8 150Z" fill="#FF3366"/>
</g>
<g clip-path="url(#clip1_1_47)">
<path d="M55.5 3H210.5C234 3 253 22 253 45.5V194.5C253 218 234 237 210.5 237H55.5C32 237 13 218 13 194.5V45.5C13 22 32 3 55.5 3Z" fill="#001E36"/>
<path d="M67 167.1V64.2C67 63.5 67.3 63.1 68 63.1C69.7 63.1 71.3 63.1 73.6 63C76 62.9 78.5 62.9 81.2 62.8C83.9 62.7 86.8 62.7 89.9 62.6C93 62.5 96 62.5 99 62.5C107.2 62.5 114 63.5 119.6 65.6C124.6 67.3 129.2 70.1 133 73.8C136.2 77 138.7 80.9 140.3 85.2C141.8 89.4 142.6 93.7 142.6 98.2C142.6 106.8 140.6 113.9 136.6 119.5C132.6 125.1 127 129.3 120.5 131.7C113.7 134.2 106.2 135.1 98 135.1C95.6 135.1 94 135.1 93 135C92 134.9 90.6 134.9 88.7 134.9V167C88.8 167.7 88.3 168.3 87.6 168.4C87.5 168.4 87.4 168.4 87.2 168.4H68.2C67.4 168.4 67 168 67 167.1ZM88.8 82.4V116C90.2 116.1 91.5 116.2 92.7 116.2H98C101.9 116.2 105.8 115.6 109.5 114.4C112.7 113.5 115.5 111.6 117.7 109.1C119.8 106.6 120.8 103.2 120.8 98.8C120.9 95.7 120.1 92.6 118.5 89.9C116.8 87.3 114.4 85.3 111.5 84.2C107.8 82.7 103.8 82.1 99.7 82.2C97.1 82.2 94.8 82.2 92.9 82.3C90.9 82.2 89.5 82.3 88.8 82.4Z" fill="#31A8FF"/>
<path d="M205 109.9C202 108.3 198.8 107.2 195.4 106.5C191.7 105.7 188 105.2 184.2 105.2C182.2 105.1 180.1 105.4 178.2 105.9C176.9 106.2 175.8 106.9 175.1 107.9C174.6 108.7 174.3 109.7 174.3 110.6C174.3 111.5 174.7 112.4 175.3 113.2C176.2 114.3 177.4 115.2 178.7 115.9C181 117.1 183.4 118.2 185.8 119.2C191.2 121 196.4 123.5 201.2 126.5C204.5 128.6 207.2 131.4 209.1 134.8C210.7 138 211.5 141.5 211.4 145.1C211.5 149.8 210.1 154.5 207.5 158.4C204.7 162.4 200.8 165.5 196.3 167.3C191.4 169.4 185.4 170.5 178.2 170.5C173.6 170.5 169.1 170.1 164.6 169.2C161.1 168.6 157.6 167.5 154.4 166C153.7 165.6 153.2 164.9 153.3 164.1V146.7C153.3 146.4 153.4 146 153.7 145.8C154 145.6 154.3 145.7 154.6 145.9C158.5 148.2 162.6 149.8 167 150.8C170.8 151.8 174.8 152.3 178.8 152.3C182.6 152.3 185.3 151.8 187.1 150.9C188.7 150.2 189.8 148.5 189.8 146.7C189.8 145.3 189 144 187.4 142.7C185.8 141.4 182.5 139.9 177.6 138C172.5 136.2 167.8 133.8 163.4 130.8C160.3 128.6 157.7 125.7 155.8 122.3C154.2 119.1 153.4 115.6 153.5 112.1C153.5 107.8 154.7 103.7 156.9 100C159.4 96 163.1 92.8 167.4 90.8C172.1 88.4 178 87.3 185.1 87.3C189.2 87.3 193.4 87.6 197.5 88.2C200.5 88.6 203.4 89.4 206.1 90.5C206.5 90.6 206.9 91 207.1 91.4C207.2 91.8 207.3 92.2 207.3 92.6V108.9C207.3 109.3 207.1 109.7 206.8 109.9C205.9 110.1 205.4 110.1 205 109.9Z" fill="#31A8FF"/>
</g>
<g clip-path="url(#clip2_1_47)">
<path d="M716.5 3H561.5C538.028 3 519 22.0279 519 45.5V194.5C519 217.972 538.028 237 561.5 237H716.5C739.972 237 759 217.972 759 194.5V45.5C759 22.0279 739.972 3 716.5 3Z" fill="#330000"/>
<path d="M635.3 143.428H598.11L590.542 166.934C590.439 167.363 590.19 167.742 589.837 168.007C589.484 168.272 589.05 168.405 588.61 168.384H569.773C568.7 168.384 568.324 167.793 568.646 166.612L600.846 73.876C601.169 72.91 601.491 71.81 601.813 70.576C602.234 68.428 602.449 66.2448 602.456 64.056C602.434 63.9027 602.448 63.7464 602.497 63.5995C602.546 63.4525 602.628 63.319 602.738 63.2095C602.847 63.1 602.981 63.0176 603.127 62.9687C603.274 62.9198 603.431 62.9059 603.584 62.928H629.182C629.932 62.928 630.361 63.1963 630.47 63.733L667.018 166.773C667.339 167.848 667.017 168.384 666.051 168.383H645.121C644.762 168.423 644.4 168.331 644.103 168.123C643.807 167.916 643.597 167.607 643.511 167.256L635.3 143.428ZM603.905 123.142H629.343C628.699 120.997 627.948 118.582 627.089 115.897C626.229 113.216 625.317 110.345 624.353 107.284L621.454 98.107C620.488 95.0477 619.603 92.096 618.798 89.252C617.993 86.4093 617.268 83.8063 616.625 81.443H616.463C615.557 85.7912 614.429 90.0902 613.083 94.323C611.578 99.153 610.048 104.09 608.493 109.135C606.936 114.182 605.407 118.851 603.905 123.142ZM688.75 79.994C687.108 80.0599 685.47 79.7785 683.944 79.1682C682.419 78.5578 681.039 77.6322 679.895 76.452C678.755 75.2205 677.869 73.7757 677.289 72.2008C676.709 70.6259 676.446 68.9519 676.515 67.275C676.457 65.6147 676.749 63.9608 677.373 62.4212C677.997 60.8816 678.939 59.4909 680.137 58.34C681.324 57.201 682.724 56.3085 684.258 55.7143C685.791 55.12 687.428 54.8358 689.072 54.878C692.937 54.878 695.969 56.032 698.169 58.34C699.279 59.5392 700.143 60.9457 700.709 62.4789C701.275 64.0121 701.533 65.6419 701.469 67.275C701.536 68.9585 701.265 70.6384 700.67 72.2149C700.076 73.7913 699.17 75.2323 698.008 76.452C696.793 77.6496 695.343 78.5826 693.75 79.1922C692.156 79.8019 690.454 80.0748 688.75 79.994ZM677.641 166.774V89.814C677.641 88.848 678.069 88.365 678.929 88.365H698.732C699.59 88.365 700.02 88.8483 700.021 89.815V166.772C700.021 167.847 699.591 168.383 698.732 168.382H679.09C678.125 168.382 677.642 167.845 677.641 166.772V166.774Z" fill="#FF9A00"/>
</g>
<g clip-path="url(#clip3_1_47)">
<path d="M853.016 237C874.544 237 892.016 219.528 892.016 198V159H853.016C831.488 159 814.016 176.472 814.016 198C814.016 219.528 831.488 237 853.016 237Z" fill="#0ACF83"/>
<path d="M814.016 120C814.016 98.472 831.488 81 853.016 81H892.016V159H853.016C831.488 159 814.016 141.528 814.016 120Z" fill="#A259FF"/>
<path d="M814.016 42C814.016 20.472 831.488 3 853.016 3H892.016V81H853.016C831.488 81 814.016 63.528 814.016 42Z" fill="#F24E1E"/>
<path d="M892.016 3H931.016C952.544 3 970.016 20.472 970.016 42C970.016 63.528 952.544 81 931.016 81H892.016V3Z" fill="#FF7262"/>
<path d="M970.016 120C970.016 141.528 952.544 159 931.016 159C909.488 159 892.016 141.528 892.016 120C892.016 98.472 909.488 81 931.016 81C952.544 81 970.016 98.472 970.016 120Z" fill="#1ABCFE"/>
</g>
<defs>
<clipPath id="clip0_1_47">
<rect width="240" height="234" fill="white" transform="translate(266 3)"/>
</clipPath>
<clipPath id="clip1_1_47">
<rect width="240" height="234" fill="white" transform="translate(13 3)"/>
</clipPath>
<clipPath id="clip2_1_47">
<rect width="240" height="234" fill="white" transform="translate(519 3)"/>
</clipPath>
<clipPath id="clip3_1_47">
<rect width="156.031" height="234" fill="white" transform="translate(814 3)"/>
</clipPath>
</defs>
</svg>
